<svg width="1320" height="775" viewBox="0 0 1320 775" fill="none" xmlns="http://www.w3.org/2000/svg">
<rect width="1320" height="775" fill="white"/>
<rect x="76" y="160" width="457" height="455" rx="24" fill="#EEECEA"/>
<path d="M265.044 580.88C264.574 577.487 261.964 575.518 258.578 575.518C254.588 575.518 251.583 578.427 251.583 583.364C251.583 588.293 254.551 591.209 258.578 591.209C262.21 591.209 264.618 588.86 265.044 585.944L262.254 585.929C261.904 587.719 260.442 588.725 258.615 588.725C256.139 588.725 254.365 586.869 254.365 583.364C254.365 579.918 256.125 578.002 258.623 578.002C260.48 578.002 261.934 579.053 262.254 580.88H265.044ZM270.754 591.231C272.551 591.231 273.625 590.388 274.117 589.426H274.207V591H276.802V583.334C276.802 580.306 274.334 579.396 272.149 579.396C269.74 579.396 267.89 580.47 267.294 582.558L269.814 582.916C270.083 582.133 270.844 581.462 272.163 581.462C273.416 581.462 274.102 582.103 274.102 583.229V583.274C274.102 584.05 273.29 584.087 271.269 584.303C269.046 584.542 266.921 585.206 266.921 587.786C266.921 590.038 268.569 591.231 270.754 591.231ZM271.455 589.248C270.329 589.248 269.524 588.733 269.524 587.741C269.524 586.705 270.426 586.272 271.634 586.1C272.342 586.004 273.759 585.825 274.11 585.541V586.891C274.11 588.166 273.081 589.248 271.455 589.248ZM285.393 579.545H283.014V578.643C283.014 577.748 283.387 577.249 284.394 577.249C284.819 577.249 285.177 577.346 285.4 577.413L285.945 575.325C285.594 575.205 284.826 575.011 283.894 575.011C281.903 575.011 280.314 576.152 280.314 578.464V579.545H278.622V581.634H280.314V591H283.014V581.634H285.393V579.545ZM292.155 591.224C294.825 591.224 296.659 589.919 297.136 587.928L294.616 587.644C294.25 588.614 293.356 589.121 292.192 589.121C290.447 589.121 289.291 587.972 289.269 586.011H297.248V585.183C297.248 581.164 294.832 579.396 292.013 579.396C288.732 579.396 286.592 581.805 286.592 585.34C286.592 588.934 288.702 591.224 292.155 591.224ZM289.276 584.191C289.358 582.73 290.44 581.499 292.05 581.499C293.602 581.499 294.646 582.633 294.661 584.191H289.276ZM290.902 578.039H292.923L295.212 574.631H292.565L290.902 578.039ZM308.075 591H310.804L313.869 580.284H313.988L317.046 591H319.775L324.086 575.727H321.11L318.358 586.958H318.224L315.278 575.727H312.571L309.633 586.951H309.491L306.74 575.727H303.764L308.075 591ZM325.885 591H328.584V579.545H325.885V591ZM327.242 577.92C328.099 577.92 328.8 577.263 328.8 576.458C328.8 575.645 328.099 574.989 327.242 574.989C326.377 574.989 325.676 575.645 325.676 576.458C325.676 577.263 326.377 577.92 327.242 577.92ZM338.303 583.528H331.427V585.75H338.303V583.528ZM341.262 591H344.028V584.512H350.375V582.193H344.028V578.047H351.046V575.727H341.262V591ZM353.447 591H356.147V579.545H353.447V591ZM354.804 577.92C355.662 577.92 356.363 577.263 356.363 576.458C356.363 575.645 355.662 574.989 354.804 574.989C353.939 574.989 353.238 575.645 353.238 576.458C353.238 577.263 353.939 577.92 354.804 577.92Z" fill="#9F9995"/>
<g clip-path="url(#clip0)">
<rect x="483" y="222" width="100" height="332" fill="#CADAD2"/>
<g style="mix-blend-mode:multiply" opacity="0.15">
<path d="M424 491.5L650.5 718" stroke="#125634"/>
<path d="M424 485.5L650.5 712" stroke="#125634"/>
<path d="M424 479.5L650.5 706" stroke="#125634"/>
<path d="M424 473.5L650.5 700" stroke="#125634"/>
<path d="M424 467.5L650.5 694" stroke="#125634"/>
<path d="M424 461.5L650.5 688" stroke="#125634"/>
<path d="M424 455.5L650.5 682" stroke="#125634"/>
<path d="M424 449.5L650.5 676" stroke="#125634"/>
<path d="M424 443.5L650.5 670" stroke="#125634"/>
<path d="M424 437.5L650.5 664" stroke="#125634"/>
<path d="M424 431.5L650.5 658" stroke="#125634"/>
<path d="M424 425.5L650.5 652" stroke="#125634"/>
<path d="M424 419.5L650.5 646" stroke="#125634"/>
<path d="M424 413.5L650.5 640" stroke="#125634"/>
<path d="M424 407.5L650.5 634" stroke="#125634"/>
<path d="M424 401.5L650.5 628" stroke="#125634"/>
<path d="M424 395.5L650.5 622" stroke="#125634"/>
<path d="M424 389.5L650.5 616" stroke="#125634"/>
<path d="M424 383.5L650.5 610" stroke="#125634"/>
<path d="M424 377.5L650.5 604" stroke="#125634"/>
<path d="M424 371.5L650.5 598" stroke="#125634"/>
<path d="M424 365.5L650.5 592" stroke="#125634"/>
<path d="M424 359.5L650.5 586" stroke="#125634"/>
<path d="M424 353.5L650.5 580" stroke="#125634"/>
<path d="M424 347.5L650.5 574" stroke="#125634"/>
<path d="M424 341.5L650.5 568" stroke="#125634"/>
<path d="M424 335.5L650.5 562" stroke="#125634"/>
<path d="M424 329.5L650.5 556" stroke="#125634"/>
<path d="M424 323.5L650.5 550" stroke="#125634"/>
<path d="M424 317.5L650.5 544" stroke="#125634"/>
<path d="M424 311.5L650.5 538" stroke="#125634"/>
<path d="M424 305.5L650.5 532" stroke="#125634"/>
<path d="M424 299.5L650.5 526" stroke="#125634"/>
<path d="M424 293.5L650.5 520" stroke="#125634"/>
<path d="M424 287.5L650.5 514" stroke="#125634"/>
<path d="M424 281.5L650.5 508" stroke="#125634"/>
<path d="M424 275.5L650.5 502" stroke="#125634"/>
<path d="M424 269.5L650.5 496" stroke="#125634"/>
<path d="M424 263.5L650.5 490" stroke="#125634"/>
<path d="M424 257.5L650.5 484" stroke="#125634"/>
<path d="M424 251.5L650.5 478" stroke="#125634"/>
<path d="M424 245.5L650.5 472" stroke="#125634"/>
<path d="M424 239.5L650.5 466" stroke="#125634"/>
<path d="M424 233.5L650.5 460" stroke="#125634"/>
<path d="M424 227.5L650.5 454" stroke="#125634"/>
<path d="M424 221.5L650.5 448" stroke="#125634"/>
<path d="M424 215.5L650.5 442" stroke="#125634"/>
<path d="M424 209.5L650.5 436" stroke="#125634"/>
<path d="M424 203.5L650.5 430" stroke="#125634"/>
<path d="M424 197.5L650.5 424" stroke="#125634"/>
<path d="M424 191.5L650.5 418" stroke="#125634"/>
<path d="M424 185.5L650.5 412" stroke="#125634"/>
<path d="M424 179.5L650.5 406" stroke="#125634"/>
<path d="M424 173.5L650.5 400" stroke="#125634"/>
<path d="M424 167.5L650.5 394" stroke="#125634"/>
<path d="M424 161.5L650.5 388" stroke="#125634"/>
<path d="M424 155.5L650.5 382" stroke="#125634"/>
<path d="M424 149.5L650.5 376" stroke="#125634"/>
<path d="M424 143.5L650.5 370" stroke="#125634"/>
<path d="M424 137.5L650.5 364" stroke="#125634"/>
<path d="M424 131.5L650.5 358" stroke="#125634"/>
<path d="M424 125.5L650.5 352" stroke="#125634"/>
<path d="M424 119.5L650.5 346" stroke="#125634"/>
<path d="M424 113.5L650.5 340" stroke="#125634"/>
<path d="M424 107.5L650.5 334" stroke="#125634"/>
<path d="M424 101.5L650.5 328" stroke="#125634"/>
<path d="M424 95.5L650.5 322" stroke="#125634"/>
<path d="M424 89.5L650.5 316" stroke="#125634"/>
<path d="M424 83.5L650.5 310" stroke="#125634"/>
<path d="M424 77.5L650.5 304" stroke="#125634"/>
<path d="M424 71.5L650.5 298" stroke="#125634"/>
<path d="M424 65.5L650.5 292" stroke="#125634"/>
<path d="M424 59.5L650.5 286" stroke="#125634"/>
<path d="M424 53.5L650.5 280" stroke="#125634"/>
</g>
</g>
<rect x="786" y="160" width="457" height="455" rx="24" fill="#EEECEA"/>
<path d="M959.72 591H962.487V584.512H969.564V591H972.338V575.727H969.564V582.193H962.487V575.727H959.72V591ZM980.224 591.224C983.58 591.224 985.713 588.86 985.713 585.317C985.713 581.768 983.58 579.396 980.224 579.396C976.869 579.396 974.736 581.768 974.736 585.317C974.736 588.86 976.869 591.224 980.224 591.224ZM980.239 589.061C978.382 589.061 977.473 587.406 977.473 585.31C977.473 583.214 978.382 581.537 980.239 581.537C982.066 581.537 982.976 583.214 982.976 585.31C982.976 587.406 982.066 589.061 980.239 589.061ZM993.724 579.545H991.464V576.801H988.765V579.545H987.139V581.634H988.765V588.002C988.75 590.157 990.316 591.216 992.344 591.157C993.113 591.134 993.642 590.985 993.933 590.888L993.478 588.778C993.329 588.815 993.023 588.882 992.688 588.882C992.009 588.882 991.464 588.643 991.464 587.555V581.634H993.724V579.545ZM1000.93 591.224C1003.6 591.224 1005.43 589.919 1005.91 587.928L1003.39 587.644C1003.03 588.614 1002.13 589.121 1000.97 589.121C999.222 589.121 998.066 587.972 998.044 586.011H1006.02V585.183C1006.02 581.164 1003.61 579.396 1000.79 579.396C997.507 579.396 995.367 581.805 995.367 585.34C995.367 588.934 997.477 591.224 1000.93 591.224ZM998.051 584.191C998.133 582.73 999.215 581.499 1000.83 581.499C1002.38 581.499 1003.42 582.633 1003.44 584.191H998.051ZM1011.01 575.727H1008.31V591H1011.01V575.727ZM1022.33 591H1025.05L1028.12 580.284H1028.24L1031.3 591H1034.03L1038.34 575.727H1035.36L1032.61 586.958H1032.47L1029.53 575.727H1026.82L1023.88 586.951H1023.74L1020.99 575.727H1018.01L1022.33 591ZM1040.14 591H1042.83V579.545H1040.14V591ZM1041.49 577.92C1042.35 577.92 1043.05 577.263 1043.05 576.458C1043.05 575.645 1042.35 574.989 1041.49 574.989C1040.63 574.989 1039.93 575.645 1039.93 576.458C1039.93 577.263 1040.63 577.92 1041.49 577.92ZM1052.55 583.528H1045.68V585.75H1052.55V583.528ZM1055.51 591H1058.28V584.512H1064.63V582.193H1058.28V578.047H1065.3V575.727H1055.51V591ZM1067.7 591H1070.4V579.545H1067.7V591ZM1069.05 577.92C1069.91 577.92 1070.61 577.263 1070.61 576.458C1070.61 575.645 1069.91 574.989 1069.05 574.989C1068.19 574.989 1067.49 575.645 1067.49 576.458C1067.49 577.263 1068.19 577.92 1069.05 577.92Z" fill="#9F9995"/>
<g clip-path="url(#clip1)">
<rect x="736" y="222" width="100" height="332" fill="#CADAD2"/>
<g style="mix-blend-mode:multiply" opacity="0.15">
<path d="M677 491.5L903.5 718" stroke="#125634"/>
<path d="M677 485.5L903.5 712" stroke="#125634"/>
<path d="M677 479.5L903.5 706" stroke="#125634"/>
<path d="M677 473.5L903.5 700" stroke="#125634"/>
<path d="M677 467.5L903.5 694" stroke="#125634"/>
<path d="M677 461.5L903.5 688" stroke="#125634"/>
<path d="M677 455.5L903.5 682" stroke="#125634"/>
<path d="M677 449.5L903.5 676" stroke="#125634"/>
<path d="M677 443.5L903.5 670" stroke="#125634"/>
<path d="M677 437.5L903.5 664" stroke="#125634"/>
<path d="M677 431.5L903.5 658" stroke="#125634"/>
<path d="M677 425.5L903.5 652" stroke="#125634"/>
<path d="M677 419.5L903.5 646" stroke="#125634"/>
<path d="M677 413.5L903.5 640" stroke="#125634"/>
<path d="M677 407.5L903.5 634" stroke="#125634"/>
<path d="M677 401.5L903.5 628" stroke="#125634"/>
<path d="M677 395.5L903.5 622" stroke="#125634"/>
<path d="M677 389.5L903.5 616" stroke="#125634"/>
<path d="M677 383.5L903.5 610" stroke="#125634"/>
<path d="M677 377.5L903.5 604" stroke="#125634"/>
<path d="M677 371.5L903.5 598" stroke="#125634"/>
<path d="M677 365.5L903.5 592" stroke="#125634"/>
<path d="M677 359.5L903.5 586" stroke="#125634"/>
<path d="M677 353.5L903.5 580" stroke="#125634"/>
<path d="M677 347.5L903.5 574" stroke="#125634"/>
<path d="M677 341.5L903.5 568" stroke="#125634"/>
<path d="M677 335.5L903.5 562" stroke="#125634"/>
<path d="M677 329.5L903.5 556" stroke="#125634"/>
<path d="M677 323.5L903.5 550" stroke="#125634"/>
<path d="M677 317.5L903.5 544" stroke="#125634"/>
<path d="M677 311.5L903.5 538" stroke="#125634"/>
<path d="M677 305.5L903.5 532" stroke="#125634"/>
<path d="M677 299.5L903.5 526" stroke="#125634"/>
<path d="M677 293.5L903.5 520" stroke="#125634"/>
<path d="M677 287.5L903.5 514" stroke="#125634"/>
<path d="M677 281.5L903.5 508" stroke="#125634"/>
<path d="M677 275.5L903.5 502" stroke="#125634"/>
<path d="M677 269.5L903.5 496" stroke="#125634"/>
<path d="M677 263.5L903.5 490" stroke="#125634"/>
<path d="M677 257.5L903.5 484" stroke="#125634"/>
<path d="M677 251.5L903.5 478" stroke="#125634"/>
<path d="M677 245.5L903.5 472" stroke="#125634"/>
<path d="M677 239.5L903.5 466" stroke="#125634"/>
<path d="M677 233.5L903.5 460" stroke="#125634"/>
<path d="M677 227.5L903.5 454" stroke="#125634"/>
<path d="M677 221.5L903.5 448" stroke="#125634"/>
<path d="M677 215.5L903.5 442" stroke="#125634"/>
<path d="M677 209.5L903.5 436" stroke="#125634"/>
<path d="M677 203.5L903.5 430" stroke="#125634"/>
<path d="M677 197.5L903.5 424" stroke="#125634"/>
<path d="M677 191.5L903.5 418" stroke="#125634"/>
<path d="M677 185.5L903.5 412" stroke="#125634"/>
<path d="M677 179.5L903.5 406" stroke="#125634"/>
<path d="M677 173.5L903.5 400" stroke="#125634"/>
<path d="M677 167.5L903.5 394" stroke="#125634"/>
<path d="M677 161.5L903.5 388" stroke="#125634"/>
<path d="M677 155.5L903.5 382" stroke="#125634"/>
<path d="M677 149.5L903.5 376" stroke="#125634"/>
<path d="M677 143.5L903.5 370" stroke="#125634"/>
<path d="M677 137.5L903.5 364" stroke="#125634"/>
<path d="M677 131.5L903.5 358" stroke="#125634"/>
<path d="M677 125.5L903.5 352" stroke="#125634"/>
<path d="M677 119.5L903.5 346" stroke="#125634"/>
<path d="M677 113.5L903.5 340" stroke="#125634"/>
<path d="M677 107.5L903.5 334" stroke="#125634"/>
<path d="M677 101.5L903.5 328" stroke="#125634"/>
<path d="M677 95.5L903.5 322" stroke="#125634"/>
<path d="M677 89.5L903.5 316" stroke="#125634"/>
<path d="M677 83.5L903.5 310" stroke="#125634"/>
<path d="M677 77.5L903.5 304" stroke="#125634"/>
<path d="M677 71.5L903.5 298" stroke="#125634"/>
<path d="M677 65.5L903.5 292" stroke="#125634"/>
<path d="M677 59.5L903.5 286" stroke="#125634"/>
<path d="M677 53.5L903.5 280" stroke="#125634"/>
</g>
</g>
<path d="M583 383H736" stroke="#C65835" stroke-width="2"/>
<path d="M736 395L583 395" stroke="#C65835" stroke-width="2"/>
<path d="M583 395H483" stroke="#8FAC9E" stroke-width="2"/>
<path d="M583 383H483" stroke="#8FAC9E" stroke-width="2"/>
<path d="M836 383H736" stroke="#8FAC9E" stroke-width="2"/>
<path d="M836 395H736" stroke="#8FAC9E" stroke-width="2"/>
<path d="M776.545 459.623L776.545 462.231L789.364 462.231L789.364 462.393L776.545 471.274L776.545 473.711L794 473.711L794 471.078L781.199 471.078L781.199 470.916L794 462.044L794 459.623L776.545 459.623ZM794 454.307L789.381 452.705L789.381 445.887L794 444.293L794 441.498L776.545 447.779L776.545 450.821L794 457.103L794 454.307ZM787.165 451.938L779.716 449.364L779.716 449.228L787.165 446.654L787.165 451.938ZM778.812 441.924L778.812 436.486L794 436.486L794 433.861L778.812 433.861L778.812 428.415L776.545 428.415L776.545 441.924L778.812 441.924ZM790.898 414.314L790.898 412.022L786.423 412.022L786.423 407.547L784.131 407.547L784.131 412.022L779.648 412.022L779.648 414.314L784.131 414.314L784.131 418.797L786.423 418.797L786.423 414.314L790.898 414.314ZM794 397.071L794 394.437L786.389 394.437L786.389 387.022L784.131 387.022L784.131 394.437L778.812 394.437L778.812 386.247L776.545 386.247L776.545 397.071L794 397.071ZM794 383.213L794 380.664L780.909 380.664L780.909 383.213L794 383.213ZM778.889 381.926C778.889 381.048 778.207 380.315 777.372 380.315C776.537 380.315 775.847 381.048 775.847 381.926C775.847 382.812 776.537 383.537 777.372 383.537C778.207 383.537 778.889 382.812 778.889 381.926ZM794 377.236L794 374.688L786.006 374.688C784.301 374.688 783.065 373.367 783.065 371.603C783.065 371.108 783.168 370.725 783.321 370.418L781.19 369.6C780.901 370.034 780.713 370.597 780.713 371.313C780.713 372.864 781.582 374.159 782.989 374.637L782.989 374.773L780.909 374.773L780.909 377.236L794 377.236ZM794.264 362.5C794.264 359.645 792.858 357.625 790.727 357.046L790.293 359.458C791.528 359.918 792.159 361.026 792.159 362.475C792.159 364.657 790.744 366.123 788.222 366.191L788.222 356.884L787.318 356.884C782.588 356.884 780.739 359.713 780.739 362.679C780.739 366.327 783.517 368.73 787.54 368.73C791.605 368.73 794.264 366.361 794.264 362.5ZM786.312 366.182C784.455 366.08 782.844 364.733 782.844 362.662C782.844 360.685 784.31 359.39 786.312 359.381L786.312 366.182ZM794 351.242L794 348.651L784.548 345.992L784.548 345.796L794 343.137L794 340.537L780.909 336.694L780.909 339.327L790.48 341.875L790.48 342.003L780.909 344.56L780.909 347.194L790.523 349.767L790.523 349.895L780.909 352.461L780.909 355.094L794 351.242ZM794.29 330.466C794.29 328.301 793.19 327.082 792.21 326.596L792.21 326.494L794 326.494L794 324.005L785.307 324.005C781.497 324.005 780.739 327.005 780.739 329.085C780.739 331.454 781.693 333.636 784.08 334.488L784.625 332.093C783.696 331.718 782.801 330.764 782.801 329.051C782.801 327.406 783.662 326.562 785.145 326.562L785.205 326.562C786.134 326.562 786.116 327.517 786.389 329.869C786.679 332.349 787.327 334.889 790.301 334.889C792.875 334.889 794.29 332.954 794.29 330.466ZM792.244 329.912C792.244 331.352 791.597 332.392 790.335 332.392C788.972 332.392 788.486 331.181 788.29 329.707C788.179 328.88 787.957 326.92 787.591 326.554L789.278 326.554C790.83 326.554 792.244 327.789 792.244 329.912ZM776.545 318.063L776.545 320.611L794 320.611L794 318.063L776.545 318.063ZM776.545 312.086L776.545 314.635L794 314.635L794 312.086L776.545 312.086Z" fill="#37654E"/>
<path d="M523.545 459.623L523.545 462.231L536.364 462.231L536.364 462.393L523.545 471.274L523.545 473.711L541 473.711L541 471.078L528.199 471.078L528.199 470.916L541 462.044L541 459.623L523.545 459.623ZM541 454.307L536.381 452.705L536.381 445.887L541 444.293L541 441.498L523.545 447.779L523.545 450.821L541 457.103L541 454.307ZM534.165 451.938L526.716 449.364L526.716 449.228L534.165 446.654L534.165 451.938ZM525.812 441.924L525.812 436.486L541 436.486L541 433.861L525.812 433.861L525.812 428.415L523.545 428.415L523.545 441.924L525.812 441.924ZM537.898 414.314L537.898 412.022L533.423 412.022L533.423 407.547L531.131 407.547L531.131 412.022L526.648 412.022L526.648 414.314L531.131 414.314L531.131 418.797L533.423 418.797L533.423 414.314L537.898 414.314ZM541 397.071L541 394.437L533.389 394.437L533.389 387.022L531.131 387.022L531.131 394.437L525.812 394.437L525.812 386.247L523.545 386.247L523.545 397.071L541 397.071ZM541 383.213L541 380.664L527.909 380.664L527.909 383.213L541 383.213ZM525.889 381.926C525.889 381.048 525.207 380.315 524.372 380.315C523.537 380.315 522.847 381.048 522.847 381.926C522.847 382.812 523.537 383.537 524.372 383.537C525.207 383.537 525.889 382.812 525.889 381.926ZM541 377.236L541 374.688L533.006 374.688C531.301 374.688 530.065 373.367 530.065 371.603C530.065 371.108 530.168 370.725 530.321 370.418L528.19 369.6C527.901 370.034 527.713 370.597 527.713 371.313C527.713 372.864 528.582 374.159 529.989 374.637L529.989 374.773L527.909 374.773L527.909 377.236L541 377.236ZM541.264 362.5C541.264 359.645 539.858 357.625 537.727 357.046L537.293 359.458C538.528 359.918 539.159 361.026 539.159 362.475C539.159 364.657 537.744 366.123 535.222 366.191L535.222 356.884L534.318 356.884C529.588 356.884 527.739 359.713 527.739 362.679C527.739 366.327 530.517 368.73 534.54 368.73C538.605 368.73 541.264 366.361 541.264 362.5ZM533.312 366.182C531.455 366.08 529.844 364.733 529.844 362.662C529.844 360.685 531.31 359.39 533.312 359.381L533.312 366.182ZM541 351.242L541 348.651L531.548 345.992L531.548 345.796L541 343.137L541 340.537L527.909 336.694L527.909 339.327L537.48 341.875L537.48 342.003L527.909 344.56L527.909 347.194L537.523 349.767L537.523 349.895L527.909 352.461L527.909 355.094L541 351.242ZM541.29 330.466C541.29 328.301 540.19 327.082 539.21 326.596L539.21 326.494L541 326.494L541 324.005L532.307 324.005C528.497 324.005 527.739 327.005 527.739 329.085C527.739 331.454 528.693 333.636 531.08 334.488L531.625 332.093C530.696 331.718 529.801 330.764 529.801 329.051C529.801 327.406 530.662 326.562 532.145 326.562L532.205 326.562C533.134 326.562 533.116 327.517 533.389 329.869C533.679 332.349 534.327 334.889 537.301 334.889C539.875 334.889 541.29 332.954 541.29 330.466ZM539.244 329.912C539.244 331.352 538.597 332.392 537.335 332.392C535.972 332.392 535.486 331.181 535.29 329.707C535.179 328.88 534.957 326.92 534.591 326.554L536.278 326.554C537.83 326.554 539.244 327.789 539.244 329.912ZM523.545 318.063L523.545 320.611L541 320.611L541 318.063L523.545 318.063ZM523.545 312.086L523.545 314.635L541 314.635L541 312.086L523.545 312.086Z" fill="#37654E"/>
<path d="M113 377C113 368.163 120.163 361 129 361H369C377.837 361 385 368.163 385 377V398C385 406.837 377.837 414 369 414H129C120.163 414 113 406.837 113 398V377Z" fill="#D6CFCC"/>
<path d="M130.145 380.547H136.036V397H138.879V380.547H144.779V378.091H130.145V380.547ZM149.729 397.314C152.074 397.314 153.394 396.123 153.921 395.061H154.031V397H156.727V387.582C156.727 383.455 153.477 382.634 151.225 382.634C148.658 382.634 146.294 383.668 145.371 386.253L147.965 386.844C148.372 385.837 149.406 384.868 151.261 384.868C153.043 384.868 153.958 385.8 153.958 387.407V387.472C153.958 388.478 152.923 388.46 150.375 388.755C147.688 389.069 144.937 389.771 144.937 392.993C144.937 395.781 147.033 397.314 149.729 397.314ZM150.329 395.098C148.769 395.098 147.642 394.396 147.642 393.03C147.642 391.553 148.953 391.026 150.551 390.814C151.446 390.694 153.57 390.454 153.967 390.057V391.885C153.967 393.565 152.628 395.098 150.329 395.098ZM160.144 397H162.905V382.818H160.144V397ZM161.539 380.63C162.49 380.63 163.284 379.891 163.284 378.987C163.284 378.082 162.49 377.334 161.539 377.334C160.578 377.334 159.794 378.082 159.794 378.987C159.794 379.891 160.578 380.63 161.539 380.63ZM169.12 378.091H166.359V397H169.12V378.091ZM183.201 386.281C182.628 384.074 180.902 382.634 177.836 382.634C174.633 382.634 172.361 384.323 172.361 386.835C172.361 388.847 173.58 390.186 176.239 390.777L178.64 391.303C180.006 391.608 180.643 392.217 180.643 393.104C180.643 394.202 179.471 395.061 177.661 395.061C176.008 395.061 174.947 394.35 174.614 392.956L171.946 393.362C172.407 395.874 174.494 397.286 177.679 397.286C181.105 397.286 183.478 395.467 183.478 392.901C183.478 390.897 182.204 389.66 179.6 389.06L177.347 388.543C175.787 388.173 175.113 387.647 175.122 386.687C175.113 385.597 176.295 384.822 177.864 384.822C179.581 384.822 180.375 385.773 180.699 386.724L183.201 386.281ZM192.227 397.286C195.578 397.286 197.748 395.273 198.053 392.513H195.366C195.015 394.045 193.824 394.95 192.245 394.95C189.909 394.95 188.404 393.002 188.404 389.909C188.404 386.871 189.937 384.96 192.245 384.96C194 384.96 195.071 386.068 195.366 387.398H198.053C197.757 384.536 195.421 382.634 192.199 382.634C188.201 382.634 185.616 385.643 185.616 389.974C185.616 394.249 188.109 397.286 192.227 397.286ZM204.872 397.314C207.217 397.314 208.538 396.123 209.064 395.061H209.175V397H211.871V387.582C211.871 383.455 208.621 382.634 206.368 382.634C203.801 382.634 201.438 383.668 200.514 386.253L203.109 386.844C203.515 385.837 204.549 384.868 206.405 384.868C208.187 384.868 209.101 385.8 209.101 387.407V387.472C209.101 388.478 208.067 388.46 205.518 388.755C202.832 389.069 200.08 389.771 200.08 392.993C200.08 395.781 202.176 397.314 204.872 397.314ZM205.472 395.098C203.912 395.098 202.786 394.396 202.786 393.03C202.786 391.553 204.097 391.026 205.694 390.814C206.59 390.694 208.713 390.454 209.11 390.057V391.885C209.11 393.565 207.771 395.098 205.472 395.098ZM218.048 378.091H215.288V397H218.048V378.091ZM227.615 397.286C230.708 397.286 232.896 395.763 233.524 393.455L230.911 392.984C230.412 394.322 229.212 395.006 227.642 395.006C225.279 395.006 223.691 393.473 223.617 390.74H233.699V389.761C233.699 384.637 230.634 382.634 227.421 382.634C223.469 382.634 220.865 385.643 220.865 390.001C220.865 394.406 223.432 397.286 227.615 397.286ZM223.626 388.672C223.737 386.659 225.196 384.914 227.439 384.914C229.581 384.914 230.985 386.502 230.994 388.672H223.626ZM259.05 384.24C258.404 380.196 255.237 377.832 251.239 377.832C246.345 377.832 242.735 381.498 242.735 387.545C242.735 393.593 246.327 397.259 251.239 397.259C255.394 397.259 258.431 394.655 259.05 390.915L256.169 390.906C255.68 393.325 253.649 394.655 251.257 394.655C248.016 394.655 245.57 392.171 245.57 387.545C245.57 382.957 248.007 380.436 251.266 380.436C253.676 380.436 255.698 381.793 256.169 384.24H259.05ZM264.743 378.091H261.982V397H264.743V378.091ZM268.197 397H270.957V382.818H268.197V397ZM269.591 380.63C270.542 380.63 271.336 379.891 271.336 378.987C271.336 378.082 270.542 377.334 269.591 377.334C268.631 377.334 267.846 378.082 267.846 378.987C267.846 379.891 268.631 380.63 269.591 380.63ZM280.524 397.286C283.617 397.286 285.805 395.763 286.433 393.455L283.82 392.984C283.321 394.322 282.121 395.006 280.551 395.006C278.188 395.006 276.6 393.473 276.526 390.74H286.608V389.761C286.608 384.637 283.543 382.634 280.33 382.634C276.378 382.634 273.774 385.643 273.774 390.001C273.774 394.406 276.341 397.286 280.524 397.286ZM276.535 388.672C276.646 386.659 278.105 384.914 280.348 384.914C282.49 384.914 283.894 386.502 283.903 388.672H276.535ZM292.172 388.58C292.172 386.317 293.557 385.025 295.477 385.025C297.351 385.025 298.487 386.253 298.487 388.312V397H301.248V387.979C301.248 384.471 299.318 382.634 296.419 382.634C294.286 382.634 292.892 383.621 292.236 385.126H292.061V382.818H289.411V397H292.172V388.58ZM311.31 382.818H308.402V379.42H305.641V382.818H303.564V385.034H305.641V393.408C305.632 395.984 307.599 397.231 309.778 397.185C310.655 397.175 311.246 397.009 311.569 396.889L311.07 394.609C310.886 394.646 310.544 394.729 310.101 394.729C309.205 394.729 308.402 394.433 308.402 392.836V385.034H311.31V382.818Z" fill="#242424"/>
<circle cx="356" cy="387.5" r="13" fill="#343433"/>
<circle cx="356" cy="388" r="5" fill="#343433"/>
<path d="M483 395H371M371 395L378 388M371 395L378 402" stroke="#C65835" stroke-width="2"/>
<path d="M372.5 383H483" stroke="#C65835" stroke-width="2"/>
<path d="M934 377C934 368.163 941.163 361 950 361H1190C1198.84 361 1206 368.163 1206 377V398C1206 406.837 1198.84 414 1190 414H950C941.163 414 934 406.837 934 398V377Z" fill="#D6CFCC"/>
<path d="M1007.14 380.547H1013.04V397H1015.88V380.547H1021.78V378.091H1007.14V380.547ZM1026.73 397.314C1029.07 397.314 1030.39 396.123 1030.92 395.061H1031.03V397H1033.73V387.582C1033.73 383.455 1030.48 382.634 1028.22 382.634C1025.66 382.634 1023.29 383.668 1022.37 386.253L1024.97 386.844C1025.37 385.837 1026.41 384.868 1028.26 384.868C1030.04 384.868 1030.96 385.8 1030.96 387.407V387.472C1030.96 388.478 1029.92 388.46 1027.38 388.755C1024.69 389.069 1021.94 389.771 1021.94 392.993C1021.94 395.781 1024.03 397.314 1026.73 397.314ZM1027.33 395.098C1025.77 395.098 1024.64 394.396 1024.64 393.03C1024.64 391.553 1025.95 391.026 1027.55 390.814C1028.45 390.694 1030.57 390.454 1030.97 390.057V391.885C1030.97 393.565 1029.63 395.098 1027.33 395.098ZM1037.14 397H1039.91V382.818H1037.14V397ZM1038.54 380.63C1039.49 380.63 1040.28 379.891 1040.28 378.987C1040.28 378.082 1039.49 377.334 1038.54 377.334C1037.58 377.334 1036.79 378.082 1036.79 378.987C1036.79 379.891 1037.58 380.63 1038.54 380.63ZM1046.12 378.091H1043.36V397H1046.12V378.091ZM1060.2 386.281C1059.63 384.074 1057.9 382.634 1054.84 382.634C1051.63 382.634 1049.36 384.323 1049.36 386.835C1049.36 388.847 1050.58 390.186 1053.24 390.777L1055.64 391.303C1057.01 391.608 1057.64 392.217 1057.64 393.104C1057.64 394.202 1056.47 395.061 1054.66 395.061C1053.01 395.061 1051.95 394.35 1051.61 392.956L1048.95 393.362C1049.41 395.874 1051.49 397.286 1054.68 397.286C1058.1 397.286 1060.48 395.467 1060.48 392.901C1060.48 390.897 1059.2 389.66 1056.6 389.06L1054.35 388.543C1052.79 388.173 1052.11 387.647 1052.12 386.687C1052.11 385.597 1053.29 384.822 1054.86 384.822C1056.58 384.822 1057.38 385.773 1057.7 386.724L1060.2 386.281ZM1069.23 397.286C1072.58 397.286 1074.75 395.273 1075.05 392.513H1072.37C1072.02 394.045 1070.82 394.95 1069.25 394.95C1066.91 394.95 1065.4 393.002 1065.4 389.909C1065.4 386.871 1066.94 384.96 1069.25 384.96C1071 384.96 1072.07 386.068 1072.37 387.398H1075.05C1074.76 384.536 1072.42 382.634 1069.2 382.634C1065.2 382.634 1062.62 385.643 1062.62 389.974C1062.62 394.249 1065.11 397.286 1069.23 397.286ZM1081.87 397.314C1084.22 397.314 1085.54 396.123 1086.06 395.061H1086.17V397H1088.87V387.582C1088.87 383.455 1085.62 382.634 1083.37 382.634C1080.8 382.634 1078.44 383.668 1077.51 386.253L1080.11 386.844C1080.51 385.837 1081.55 384.868 1083.4 384.868C1085.19 384.868 1086.1 385.8 1086.1 387.407V387.472C1086.1 388.478 1085.07 388.46 1082.52 388.755C1079.83 389.069 1077.08 389.771 1077.08 392.993C1077.08 395.781 1079.18 397.314 1081.87 397.314ZM1082.47 395.098C1080.91 395.098 1079.79 394.396 1079.79 393.03C1079.79 391.553 1081.1 391.026 1082.69 390.814C1083.59 390.694 1085.71 390.454 1086.11 390.057V391.885C1086.11 393.565 1084.77 395.098 1082.47 395.098ZM1095.05 378.091H1092.29V397H1095.05V378.091ZM1104.61 397.286C1107.71 397.286 1109.9 395.763 1110.52 393.455L1107.91 392.984C1107.41 394.322 1106.21 395.006 1104.64 395.006C1102.28 395.006 1100.69 393.473 1100.62 390.74H1110.7V389.761C1110.7 384.637 1107.63 382.634 1104.42 382.634C1100.47 382.634 1097.87 385.643 1097.87 390.001C1097.87 394.406 1100.43 397.286 1104.61 397.286ZM1100.63 388.672C1100.74 386.659 1102.2 384.914 1104.44 384.914C1106.58 384.914 1107.98 386.502 1107.99 388.672H1100.63ZM1136.05 384.24C1135.4 380.196 1132.24 377.832 1128.24 377.832C1123.35 377.832 1119.74 381.498 1119.74 387.545C1119.74 393.593 1123.33 397.259 1128.24 397.259C1132.39 397.259 1135.43 394.655 1136.05 390.915L1133.17 390.906C1132.68 393.325 1130.65 394.655 1128.26 394.655C1125.02 394.655 1122.57 392.171 1122.57 387.545C1122.57 382.957 1125.01 380.436 1128.27 380.436C1130.68 380.436 1132.7 381.793 1133.17 384.24H1136.05ZM1141.74 378.091H1138.98V397H1141.74V378.091ZM1145.2 397H1147.96V382.818H1145.2V397ZM1146.59 380.63C1147.54 380.63 1148.34 379.891 1148.34 378.987C1148.34 378.082 1147.54 377.334 1146.59 377.334C1145.63 377.334 1144.85 378.082 1144.85 378.987C1144.85 379.891 1145.63 380.63 1146.59 380.63ZM1157.52 397.286C1160.62 397.286 1162.8 395.763 1163.43 393.455L1160.82 392.984C1160.32 394.322 1159.12 395.006 1157.55 395.006C1155.19 395.006 1153.6 393.473 1153.53 390.74H1163.61V389.761C1163.61 384.637 1160.54 382.634 1157.33 382.634C1153.38 382.634 1150.77 385.643 1150.77 390.001C1150.77 394.406 1153.34 397.286 1157.52 397.286ZM1153.53 388.672C1153.65 386.659 1155.1 384.914 1157.35 384.914C1159.49 384.914 1160.89 386.502 1160.9 388.672H1153.53ZM1169.17 388.58C1169.17 386.317 1170.56 385.025 1172.48 385.025C1174.35 385.025 1175.49 386.253 1175.49 388.312V397H1178.25V387.979C1178.25 384.471 1176.32 382.634 1173.42 382.634C1171.29 382.634 1169.89 383.621 1169.24 385.126H1169.06V382.818H1166.41V397H1169.17V388.58ZM1188.31 382.818H1185.4V379.42H1182.64V382.818H1180.56V385.034H1182.64V393.408C1182.63 395.984 1184.6 397.231 1186.78 397.185C1187.65 397.175 1188.25 397.009 1188.57 396.889L1188.07 394.609C1187.89 394.646 1187.54 394.729 1187.1 394.729C1186.21 394.729 1185.4 394.433 1185.4 392.836V385.034H1188.31V382.818Z" fill="#242424"/>
<circle cx="963" cy="387.5" r="13" fill="#474645"/>
<circle cx="963" cy="388" r="5" fill="#474645"/>
<path d="M836 383H947M947 383L940 376M947 383L940 390" stroke="#C65835" stroke-width="2"/>
<path d="M946.5 395H836" stroke="#C65835" stroke-width="2"/>
<circle cx="963" cy="387.5" r="13" fill="#343433"/>
<circle cx="356" cy="387.5" r="13" fill="#343433"/>
<defs>
<clipPath id="clip0">
<path d="M483 228C483 224.686 485.686 222 489 222H577C580.314 222 583 224.686 583 228V548C583 551.314 580.314 554 577 554H489C485.686 554 483 551.314 483 548V228Z" fill="white"/>
</clipPath>
<clipPath id="clip1">
<path d="M736 228C736 224.686 738.686 222 742 222H830C833.314 222 836 224.686 836 228V548C836 551.314 833.314 554 830 554H742C738.686 554 736 551.314 736 548V228Z" fill="white"/>
</clipPath>
</defs>
</svg>
